<svg viewBox="0 0 21 21" xmlns="http://www.w3.org/2000/svg" xmlns:xlink="http://www.w3.org/1999/xlink" width="21.000000" height="21.000000" fill="none">
	<rect id="account" width="21.000000" height="21.000000" x="0.000000" y="0.000000" fill="rgb(255,255,255)" fill-opacity="0" />
	<g id="account">
		<path id="Vector" d="M13.1245 19.2509L7.87445 19.2509C6.80695 19.2509 5.89695 19.1459 5.12695 18.9184C5.31945 16.6434 7.6557 14.8496 10.4995 14.8496C13.3432 14.8496 15.6795 16.6434 15.872 18.9184C15.102 19.1459 14.192 19.2509 13.1245 19.2509Z" fill-rule="nonzero" stroke="currentColor" stroke-linecap="round" stroke-linejoin="round" stroke-width="1.29999995" />
		<path id="Vector" d="M7.875 1.75C3.5 1.75 1.75 3.5 1.75 7.875L1.75 13.125C1.75 16.4325 2.7475 18.2437 5.1275 18.9175C5.32 16.6425 7.65625 14.8487 10.5 14.8487C13.3438 14.8487 15.68 16.6425 15.8725 18.9175C18.2525 18.2437 19.25 16.4325 19.25 13.125L19.25 7.875C19.25 3.5 17.5 1.75 13.125 1.75L7.875 1.75ZM7.3675 9.25751C7.3675 7.52501 8.7675 6.125 10.5 6.125C12.2325 6.125 13.6325 7.52501 13.6325 9.25751C13.6325 10.99 12.2325 12.3987 10.5 12.3987C8.7675 12.3987 7.3675 10.99 7.3675 9.25751Z" fill-rule="nonzero" stroke="currentColor" stroke-linecap="round" stroke-linejoin="round" stroke-width="1.29999995" />
		<path id="Vector" d="M10.4997 12.3987C8.76719 12.3987 7.36719 10.99 7.36719 9.25751C7.36719 7.52501 8.76719 6.125 10.4997 6.125C12.2322 6.125 13.6322 7.52501 13.6322 9.25751C13.6322 10.99 12.2322 12.3987 10.4997 12.3987Z" fill-rule="nonzero" stroke="currentColor" stroke-linecap="round" stroke-linejoin="round" stroke-width="1.29999995" />
	</g>
</svg>
