<svg viewBox="0 0 21 21" xmlns="http://www.w3.org/2000/svg" xmlns:xlink="http://www.w3.org/1999/xlink" width="21.000000" height="21.000000" fill="none">
	<rect id="catalog" width="21.000000" height="21.000000" x="0.000000" y="0.000000" fill="rgb(255,255,255)" fill-opacity="0" />
	<g id="catalog">
		<path id="Vector" d="M6.125 8.75C7.875 8.75 8.75 7.875 8.75 6.125L8.75 4.375C8.75 2.625 7.875 1.75 6.125 1.75L4.375 1.75C2.625 1.75 1.75 2.625 1.75 4.375L1.75 6.125C1.75 7.875 2.625 8.75 4.375 8.75L6.125 8.75Z" fill-rule="nonzero" stroke="currentColor" stroke-linecap="round" stroke-linejoin="round" stroke-width="1.29999995" />
		<path id="Vector" d="M16.625 8.75C18.375 8.75 19.25 7.875 19.25 6.125L19.25 4.375C19.25 2.625 18.375 1.75 16.625 1.75L14.875 1.75C13.125 1.75 12.25 2.625 12.25 4.375L12.25 6.125C12.25 7.875 13.125 8.75 14.875 8.75L16.625 8.75Z" fill-rule="nonzero" stroke="currentColor" stroke-linecap="round" stroke-linejoin="round" stroke-width="1.29999995" />
		<path id="Vector" d="M16.625 19.25C18.375 19.25 19.25 18.375 19.25 16.625L19.25 14.875C19.25 13.125 18.375 12.25 16.625 12.25L14.875 12.25C13.125 12.25 12.25 13.125 12.25 14.875L12.25 16.625C12.25 18.375 13.125 19.25 14.875 19.25L16.625 19.25Z" fill-rule="nonzero" stroke="currentColor" stroke-linecap="round" stroke-linejoin="round" stroke-width="1.29999995" />
		<path id="Vector" d="M6.125 19.25C7.875 19.25 8.75 18.375 8.75 16.625L8.75 14.875C8.75 13.125 7.875 12.25 6.125 12.25L4.375 12.25C2.625 12.25 1.75 13.125 1.75 14.875L1.75 16.625C1.75 18.375 2.625 19.25 4.375 19.25L6.125 19.25Z" fill-rule="nonzero" stroke="currentColor" stroke-linecap="round" stroke-linejoin="round" stroke-width="1.29999995" />
	</g>
</svg>
