<svg viewBox="0 0 21 21" xmlns="http://www.w3.org/2000/svg" xmlns:xlink="http://www.w3.org/1999/xlink" width="21.000000" height="21.000000" fill="none">
	<rect id="home" width="21.000000" height="21.000000" x="0.000000" y="0.000000" fill="rgb(255,255,255)" fill-opacity="0" />
	<path id="Vector" d="M7.34655 18.9553L7.34757 12.2287C7.34757 11.3006 8.09986 10.5473 9.02897 10.5473L12.1107 10.5473C13.0398 10.5473 13.7921 11.3006 13.7921 12.2287L13.7921 18.9553L16.8758 18.9553C17.4704 18.9551 18.0406 18.7187 18.4609 18.2981C18.8812 17.8776 19.1174 17.3074 19.1174 16.7128L19.1174 10.116C19.1165 9.63557 19.0129 9.1609 18.8138 8.72374C18.6146 8.28657 18.3243 7.897 17.9624 7.5811L11.9011 2.3008C11.493 1.94574 10.9703 1.75018 10.4293 1.75018C9.88831 1.75018 9.36557 1.94574 8.95742 2.3008L2.89621 7.58008C2.53415 7.8961 2.2438 8.28583 2.0446 8.72318C1.84541 9.16053 1.74197 9.6354 1.74121 10.116L1.74121 16.7128C1.74121 17.9516 2.74494 18.9553 3.98376 18.9553L7.34655 18.9553L13.7931 18.9553" fill-rule="nonzero" stroke="currentColor" stroke-linejoin="round" stroke-width="1.29999995" />
</svg>
